<?xml version="1.0" encoding="utf-8"?>
<!-- Generator: Adobe Illustrator 24.3.0, SVG Export Plug-In . SVG Version: 6.00 Build 0)  -->
<svg version="1.1" id="Layer_1" xmlns="http://www.w3.org/2000/svg" xmlns:xlink="http://www.w3.org/1999/xlink" x="0px" y="0px"
	 viewBox="0 0 20 15.8" style="enable-background:new 0 0 20 15.8;" xml:space="preserve">
<style type="text/css">
	.st0{fill:#F7F7F7;}
</style>
<path class="st0" d="M17.6,12.7c0,0.6-0.4,0.9-0.9,0.9c-0.6,0-0.9-0.4-0.9-0.9V1.3c0-0.6-0.4-0.9-0.9-0.9H1.5
	c-0.6,0-0.9,0.4-0.9,0.9v12.3c0,1,0.9,1.9,1.9,1.9h14.2c1.6,0,2.8-1.2,2.8-2.8V3.2h-1.9V12.7z M10,3.2h2.8v1.9H10V3.2z M10,7h2.8
	v1.9H10V7z M3.4,3.2h4.7v5.7H3.4V3.2z M3.4,12.7v-1.9h9.5v1.9H3.4z"/>
</svg>
