<?xml version="1.0" encoding="utf-8"?>
<!-- Generator: Adobe Illustrator 24.3.0, SVG Export Plug-In . SVG Version: 6.00 Build 0)  -->
<svg version="1.1" id="Layer_1" xmlns="http://www.w3.org/2000/svg" xmlns:xlink="http://www.w3.org/1999/xlink" x="0px" y="0px"
	 viewBox="0 0 20 19.1" style="enable-background:new 0 0 20 19.1;" xml:space="preserve">
<style type="text/css">
	.st0{fill:#F7F7F7;}
</style>
<g>
	<g>
		<path class="st0" d="M16,7.2l-3.7-3.7c-0.1-0.1-0.2-0.1-0.3,0l-8.4,8.4c-0.1,0.1-0.1,0.2,0,0.3l3.7,3.7c0.1,0.1,0.2,0.1,0.3,0
			L16,7.5C16.1,7.4,16.1,7.3,16,7.2z"/>
	</g>
</g>
<g>
	<g>
		<path class="st0" d="M19.1,3.4l-3-3c-0.3-0.3-0.7-0.3-1,0l-1.8,1.8c-0.1,0.1-0.1,0.2,0,0.3L17,6.2c0.1,0.1,0.2,0.1,0.3,0l1.8-1.8
			C19.4,4.1,19.4,3.7,19.1,3.4z"/>
	</g>
</g>
<g>
	<g>
		<path class="st0" d="M19.1,18.2c0-0.4-0.3-0.6-0.7-0.6H4.6L5.9,17C6,16.9,6.1,16.7,6,16.6l-3.2-3.2c-0.1-0.1-0.3-0.1-0.4,0.1
			l-1.9,4.4c-0.2,0.5,0.2,1,0.7,1h17.2C18.9,19,19.2,18.6,19.1,18.2z"/>
	</g>
</g>
</svg>
