<?xml version="1.0" encoding="utf-8"?>
<!-- Generator: Adobe Illustrator 24.3.0, SVG Export Plug-In . SVG Version: 6.00 Build 0)  -->
<svg version="1.1" id="Layer_1" xmlns="http://www.w3.org/2000/svg" xmlns:xlink="http://www.w3.org/1999/xlink" x="0px" y="0px"
	 viewBox="0 0 20 18.9" style="enable-background:new 0 0 20 18.9;" xml:space="preserve">
<style type="text/css">
	.st0{fill:#F7F7F7;}
</style>
<path id="XMLID_16_" class="st0" d="M19.6,7.2c-0.1-0.3-0.4-0.5-0.7-0.6l-5.6-0.8l-2.5-5.1c-0.1-0.3-0.5-0.5-0.8-0.5
	S9.4,0.4,9.2,0.7L6.7,5.8L1.1,6.6c-0.3,0-0.6,0.3-0.7,0.6s0,0.7,0.2,0.9l4,3.9l-1,5.6c-0.1,0.3,0.1,0.7,0.3,0.9
	c0.2,0.1,0.3,0.2,0.5,0.2c0.1,0,0.3,0,0.4-0.1l5-2.6l5,2.6c0.1,0.1,0.3,0.1,0.4,0.1c0.5,0,0.9-0.4,0.9-0.9c0-0.1,0-0.1,0-0.2
	l-0.8-5.5l4-3.9C19.6,7.9,19.7,7.5,19.6,7.2z"/>
</svg>
