<?xml version="1.0" encoding="utf-8"?>
<!-- Generator: Adobe Illustrator 24.3.0, SVG Export Plug-In . SVG Version: 6.00 Build 0)  -->
<svg version="1.1" id="Layer_1" xmlns="http://www.w3.org/2000/svg" xmlns:xlink="http://www.w3.org/1999/xlink" x="0px" y="0px"
	 viewBox="0 0 20 13.3" style="enable-background:new 0 0 20 13.3;" xml:space="preserve">
<style type="text/css">
	.st0{fill:#F7F7F7;}
</style>
<g>
	<g>
		<g>
			<path class="st0" d="M5.8,9l0.7-0.2c0.1,0,0.2-0.1,0.3-0.2c0.1-0.1,0-0.2,0-0.3C6.7,8.1,6.6,7.8,6.5,7.6c0-0.1-0.1-0.1-0.1-0.2
				C6,7.1,5.8,6.7,5.8,6.3l-0.1-1C5.6,4.8,5.8,4.4,6.1,4C6,3.7,6,3.6,6,3.5C6,3.3,6,3.2,6,3c0-0.5,0.1-1,0.3-1.4
				c0.1-0.1,0-0.3,0-0.4S6.1,1,5.9,1C5.5,1,5.1,1.2,4.8,1.4c-1.8,0.1-2,1-2,1.7c0,0.1,0,0.4,0.1,0.7C2.8,3.8,2.8,3.9,2.7,4
				C2.6,4.2,2.5,4.4,2.5,4.6l0.1,0.8c0,0.3,0.2,0.5,0.5,0.6c0.1,0.5,0.3,1,0.7,1.3L3.5,7.7L2.1,8C1,8.3,0.3,9.2,0.3,10.3
				c0,0.2,0.2,0.4,0.4,0.4h2.4c0.1,0,0.3-0.1,0.3-0.2C4,9.8,4.8,9.2,5.8,9z"/>
			<path class="st0" d="M14.2,9.7l-1.9-0.5l-0.2-0.5c0.5-0.5,0.9-1.2,1-2c0.3-0.1,0.5-0.4,0.6-0.7l0.1-1.1c0-0.3,0-0.5-0.2-0.7
				C13.5,4.1,13.4,4,13.3,4V3.2L13.5,3c0.3-0.3,0.6-0.9,0-1.8c-0.4-0.6-1.1-1-2.1-1c-0.4,0-1.2,0-2,0.5C7.1,0.8,6.8,1.9,6.8,2.9
				c0,0.2,0,0.7,0.1,1C6.8,4,6.7,4,6.6,4.1C6.4,4.3,6.3,4.6,6.4,4.8l0.1,1.1c0,0.4,0.3,0.7,0.6,0.8c0.1,0.8,0.5,1.5,0.9,2L7.9,9.3
				L6,9.7c-1.4,0.3-2.3,1.6-2.3,3c0,0.2,0.2,0.4,0.4,0.4h12.1c0.2,0,0.4-0.2,0.4-0.4C16.5,11.3,15.5,10.1,14.2,9.7z"/>
			<path class="st0" d="M17.9,8l-1.3-0.3l-0.1-0.3C16.9,7,17.1,6.5,17.2,6c0.2-0.1,0.4-0.3,0.4-0.6l0.1-0.8c0-0.2,0-0.4-0.2-0.6
				c-0.1-0.1-0.1-0.1-0.2-0.1V3.4l0.1-0.1c0.2-0.2,0.5-0.7,0-1.5C17.2,1.5,16.7,1,15.8,1c-0.4,0-0.7,0.1-1,0.2
				c-0.2,0.1-0.3,0.3-0.3,0.5c0.1,0.6,0,1.2-0.3,1.7c-0.1,0.1-0.1,0.3,0,0.5c0.3,0.4,0.4,0.8,0.3,1.2l-0.1,1.1
				c-0.1,0.4-0.3,0.8-0.6,1.1c-0.1,0.1-0.1,0.1-0.1,0.2c-0.1,0.3-0.2,0.5-0.3,0.8c-0.1,0.1-0.1,0.2,0,0.4s0.2,0.2,0.3,0.2l0.7,0.2
				c0.9,0.2,1.7,0.8,2.3,1.6c0,0,0.1,0,0.3,0h2.4c0.2,0,0.4-0.2,0.4-0.4C19.7,9.2,19,8.3,17.9,8z"/>
		</g>
	</g>
</g>
</svg>
