<?xml version="1.0" encoding="utf-8"?>
<!-- Generator: Adobe Illustrator 24.3.0, SVG Export Plug-In . SVG Version: 6.00 Build 0)  -->
<svg version="1.1" id="Layer_1" xmlns="http://www.w3.org/2000/svg" xmlns:xlink="http://www.w3.org/1999/xlink" x="0px" y="0px"
	 viewBox="0 0 20 19.6" style="enable-background:new 0 0 20 19.6;" xml:space="preserve">
<style type="text/css">
	.st0{fill:#F7F7F7;}
</style>
<path class="st0" d="M17.4,0.4H2.3c-1,0-1.9,0.9-1.9,1.9v17.1l3.8-3.8h13.3c1,0,1.9-0.9,1.9-1.9V2.3C19.3,1.3,18.5,0.4,17.4,0.4z
	 M7,9.9C6,9.9,5.1,9.1,5.1,8c0-1,0.8-1.9,1.9-1.9c1,0,1.9,0.8,1.9,1.9C8.9,9.1,8.1,9.9,7,9.9z M12.7,9.9c-1,0-1.9-0.8-1.9-1.9
	c0-1,0.8-1.9,1.9-1.9c1,0,1.9,0.8,1.9,1.9C14.6,9.1,13.8,9.9,12.7,9.9z"/>
</svg>
