<?xml version="1.0" encoding="utf-8"?>
<!-- Generator: Adobe Illustrator 24.3.0, SVG Export Plug-In . SVG Version: 6.00 Build 0)  -->
<svg version="1.1" id="Capa_1" xmlns="http://www.w3.org/2000/svg" xmlns:xlink="http://www.w3.org/1999/xlink" x="0px" y="0px"
	 viewBox="0 0 16.7 22.7" style="enable-background:new 0 0 16.7 22.7;" xml:space="preserve">
<style type="text/css">
	.st0{fill:#F7F7F7;}
</style>
<g>
	<g>
		<g id="Layer_5_95_">
			<g>
				<path class="st0" d="M9,10.1c-2.4-1.1-5.3,0-6.5,2.6c-1.8,3.8,2.3,5.3-1.1,8.6C-0.5,23.2,9,21,11,16.8
					C12.3,14.3,11.3,11.3,9,10.1z"/>
				<path class="st0" d="M15.6,3.1l-4.8-2.3c-0.2-0.1-0.4,0-0.5,0.2c0,0-1.1,3.2-1.4,4.4C8.8,5.7,8.7,5.9,9,6
					c0.8,0.4,2.7,1.3,3.7,1.8c0.2,0.1,0.4-0.1,0.5-0.3c0.7-1,2.6-3.9,2.6-3.9C15.9,3.4,15.8,3.2,15.6,3.1z"/>
				<path class="st0" d="M12.1,8.5c-0.8-0.4-2.6-1.2-3.4-1.6C8.4,6.8,8.3,7.1,8.3,7.3C8.2,7.6,7.9,8.6,7.9,8.6C7.8,8.8,7.9,9,8.1,9
					c0,0,0.8,0.1,1.3,0.4c0.7,0.3,1.4,1.1,1.4,1.1c0.1,0.1,0.3,0.1,0.5,0c0,0,0.7-1,0.9-1.3C12.3,9,12.4,8.7,12.1,8.5z"/>
			</g>
		</g>
	</g>
</g>
</svg>
